<?xml version="1.0" encoding="utf-8"?>
<!-- Generator: Adobe Illustrator 25.3.1, SVG Export Plug-In . SVG Version: 6.00 Build 0)  -->
<svg version="1.1" id="Layer_1" xmlns="http://www.w3.org/2000/svg" xmlns:xlink="http://www.w3.org/1999/xlink" x="0px" y="0px"
	 viewBox="0 0 1801 300" style="enable-background:new 0 0 1801 300;" xml:space="preserve">
<style type="text/css">
	.st0{fill:#FFFFFF;}
	.st1{fill:#D08DED;}
	.st2{fill:#A670BD;}
</style>
<path class="st0" d="M558.39,98.29L540,202.57h-34.91l-64.89-82.56l-14.49,82.56H399.5L417.9,98.29h34.91l64.89,82.7l14.63-82.7
	H558.39z"/>
<path class="st0" d="M672.16,98.29l41.57,104.28h-27.96l-34.33-86.91l-37.66,50.55h43.6l8.26,20.57h-67.06l-12.02,15.79H557.3
	l78.21-104.28H672.16z"/>
<path class="st0" d="M860.73,98.29c14.34,0,24.62,12.17,22.01,26.8l-3.47,19.84c-2.75,15.64-17.24,26.8-31.58,26.8h-58.66l-17.09-21
	h72.56c4.93,0,8.26-3.33,8.98-7.54l2.9-16.65c0.72-4.2-0.87-7.53-6.23-7.53h-78.5l-14.77,83.57h-26.22l18.4-104.28H860.73z"/>
<path class="st1" d="M990.78,98.29l41.57,104.28h-27.96l-34.33-86.91l-37.66,50.55h43.6l8.26,20.57H917.2l-12.02,15.79h-29.26
	l78.21-104.28H990.78z"/>
<path class="st1" d="M1415.64,98.29l41.57,104.28h-27.96l-34.33-86.91l-37.66,50.55h43.6l8.26,20.57h-67.06l-12.02,15.79h-29.26
	l78.21-104.28H1415.64z"/>
<path class="st1" d="M1616.56,98.29l-3.62,20.71h-95.16c-5.22,0-10.14,4.2-11.01,9.27l-7.82,44.18c-0.87,5.07,2.46,9.27,7.68,9.41
	h95.16l-3.62,20.71h-98.78c-16.8,0-29.4-14.05-26.36-31.72l7.24-40.56c3.04-17.67,19.99-32.01,37.51-32.01H1616.56z"/>
<path class="st1" d="M1669.83,98.29l-7.39,42l79.23-42h39.83l-96.46,52.14l78.07,52.14h-39.4l-64.6-43.31l-7.68,43.31h-26.21
	l18.39-104.28H1669.83z"/>
<g>
	<path class="st1" d="M109.74,17.45l-81.69,112.7c-2.71,3.77-4.83,7.93-6.28,12.34l0,0c-7.83,23.82,5.13,49.48,28.95,57.31
		c4.58,1.51,9.37,2.27,14.2,2.27H76.2l33.12-45.56H65.97l43.8-60.25L109.74,17.45z"/>
	<path class="st2" d="M36.77,156.52c-7.9-0.01-14.45-6.14-14.98-14.03c-7.83,23.82,5.13,49.48,28.95,57.31
		c4.58,1.51,9.38,2.27,14.2,2.27H76.2l33.12-45.56H36.77z"/>
	<path class="st1" d="M99.97,283.41l81.68-112.7c2.72-3.77,4.84-7.94,6.28-12.35l0,0c7.82-23.84-5.16-49.5-29-57.32
		c-4.57-1.5-9.34-2.26-14.15-2.26h-11.26l-33.12,45.56h43.35l-43.8,60.25L99.97,283.41z"/>
	<path class="st2" d="M172.93,144.35c7.9,0,14.46,6.13,15,14.01c7.82-23.84-5.16-49.5-29-57.32c-4.57-1.5-9.34-2.26-14.15-2.26
		h-11.26l-33.12,45.56L172.93,144.35z"/>
</g>
<path class="st0" d="M355.94,140h-78.21c-4.2,0-7.1-3.47-6.37-7.67l1.01-5.65c0.87-4.2,4.93-7.67,9.13-7.67h86.57l16.76-20.59
	l0.05,0.1l0.04-0.22H278.16c-14.77,0-28.68,10.72-31.28,25.49l-2.46,13.9c-2.46,13.76,7.96,23.03,22.74,23.03h78.22
	c4.2,0,6.95,3.47,6.23,7.67l-1.01,5.79c-0.72,4.2-4.78,7.68-8.98,7.68h-89.42l-16.72,20.54l-0.03,0.17h109.5
	c18.83,0,28.97-13.61,31.43-26.8l1.59-9.13C380.85,150.86,374.77,140,355.94,140z"/>
<polygon class="st1" points="1177.45,98.29 1052.8,98.29 1035.94,119 1092.2,119 1077.43,202.57 1103.65,202.57 1118.42,119 
	1160.49,119 "/>
<polygon class="st1" points="1329.96,98.33 1329.97,98.29 1205.1,98.29 1188.34,118.88 1188.32,119 1244.66,119 1229.89,202.57 
	1256.1,202.57 1270.88,119 1313.04,119 "/>
<g>
</g>
<g>
</g>
<g>
</g>
<g>
</g>
<g>
</g>
<g>
</g>
<g>
</g>
<g>
</g>
<g>
</g>
<g>
</g>
<g>
</g>
<g>
</g>
<g>
</g>
<g>
</g>
<g>
</g>
</svg>
